<svg width="101" height="101" viewBox="0 0 101 101" fill="none" xmlns="http://www.w3.org/2000/svg">
<path d="M98.495 55.8893C99.6695 56.0139 100.727 55.1629 100.802 53.9841C101.201 47.6498 100.391 41.2904 98.4079 35.2475C96.2022 28.5266 92.5955 22.3502 87.8262 17.1263C83.0569 11.9024 77.2334 7.74992 70.7405 4.94316C64.9027 2.41956 58.6431 1.0355 52.2987 0.858068C51.1181 0.825049 50.1745 1.80137 50.192 2.98233C50.2095 4.16329 51.1815 5.10124 52.362 5.13898C58.1011 5.32248 63.761 6.58568 69.0434 8.86915C74.9809 11.4358 80.3062 15.2331 84.6675 20.0101C89.0289 24.7872 92.327 30.4352 94.344 36.5812C96.1385 42.0491 96.8826 47.8003 96.5443 53.5324C96.4747 54.7115 97.3205 55.7646 98.495 55.8893Z" fill="#FF3D00"/>
<path d="M4.19391 40.3892C3.04131 40.1313 1.89314 40.8561 1.6848 42.0187C0.56521 48.2661 0.644211 54.6763 1.92479 60.906C3.34905 67.8347 6.22725 74.3824 10.3692 80.1165C14.5112 85.8505 19.8228 90.6405 25.9529 94.1699C31.4646 97.3432 37.5253 99.4326 43.8081 100.333C44.9772 100.5 46.0261 99.6382 46.1435 98.463C46.2609 97.2877 45.4022 96.245 44.2338 96.0727C38.5531 95.2355 33.0743 93.3346 28.087 90.4632C22.4812 87.2357 17.6241 82.8555 13.8364 77.612C10.0487 72.3684 7.41673 66.3808 6.1143 60.0448C4.95557 54.4079 4.87266 48.6093 5.86293 42.9533C6.06662 41.7899 5.34651 40.6471 4.19391 40.3892Z" fill="#FF3D00"/>
<path d="M43.2717 3.58904C43.0834 2.42305 41.9843 1.62582 40.8274 1.86377C33.2225 3.42795 26.076 6.74413 19.9615 11.5605C13.847 16.3769 8.9493 22.548 5.6475 29.575C5.14523 30.6439 5.66286 31.8992 6.75232 32.3553C7.84179 32.8114 9.09013 32.2955 9.59668 31.2285C12.6149 24.8712 17.0647 19.287 22.6081 14.9205C28.1516 10.5539 34.6226 7.53573 41.51 6.09038C42.6659 5.84781 43.4599 4.75503 43.2717 3.58904Z" fill="#FF3D00"/>
<path d="M60.1609 97.7956C60.3894 98.9544 61.5155 99.7131 62.6634 99.4353C70.2096 97.6088 77.237 94.0472 83.1811 89.022C89.1253 83.9969 93.8064 77.66 96.863 70.5229C97.328 69.4372 96.7672 68.2006 95.6626 67.7825C94.558 67.3644 93.3283 67.9232 92.859 69.0071C90.0626 75.4651 85.8088 81.1999 80.4198 85.7557C75.0308 90.3116 68.6682 93.5519 61.8349 95.2348C60.6881 95.5172 59.9324 96.6369 60.1609 97.7956Z" fill="#FF3D00"/>
</svg>
