<svg width="950" height="758" viewBox="0 0 950 758" fill="none" xmlns="http://www.w3.org/2000/svg">
<path d="M1006.47 511.526C1006.47 407.759 973.825 306.621 913.163 222.432C852.5 138.244 766.892 75.2716 668.459 42.4312C570.025 9.59075 463.756 8.54664 364.696 39.4467C265.637 70.3468 178.808 131.625 116.503 214.605C54.198 297.585 19.575 398.062 17.5362 501.809C15.4974 605.556 46.146 707.316 105.142 792.68C164.139 878.044 248.494 942.686 346.262 977.454C444.031 1012.22 550.26 1015.35 649.908 986.407L649.505 985.02C550.148 1013.88 444.23 1010.76 346.746 976.094C249.263 941.427 165.155 876.973 106.33 791.859C47.5062 706.744 16.9471 605.282 18.98 501.838C21.0128 398.394 55.5347 298.21 117.658 215.472C179.78 132.734 266.356 71.635 365.126 40.8252C463.896 10.0154 569.856 11.0565 668.002 43.801C766.147 76.5455 851.506 139.334 911.991 223.277C972.476 307.219 1005.02 408.062 1005.02 511.526H1006.47Z" fill="black" fill-opacity="0.23"/>
<path d="M103.381 408.591C81.7818 494.325 87.6989 584.68 120.295 666.865C152.891 749.049 210.513 818.898 285.004 866.52C359.495 914.142 447.079 937.125 535.355 932.215C623.631 927.304 708.126 894.749 776.875 839.159C845.625 783.569 895.145 707.761 918.425 622.468C941.705 537.175 937.564 446.721 906.589 363.912C875.615 281.103 819.375 210.136 745.835 161.059C672.294 111.982 585.178 87.2827 496.823 90.4577L496.867 91.6873C584.964 88.5215 671.826 113.149 745.152 162.082C818.478 211.016 874.553 281.776 905.437 364.343C936.321 446.91 940.45 537.101 917.238 622.144C894.026 707.187 844.65 782.774 776.102 838.202C707.553 893.63 623.305 926.09 535.287 930.986C447.269 935.883 359.94 912.967 285.667 865.483C211.394 818 153.939 748.356 121.438 666.411C88.9377 584.467 83.0379 494.375 104.574 408.892L103.381 408.591Z" fill="black" fill-opacity="0.23"/>
</svg>
