<svg width="500" height="373" viewBox="0 0 500 373" fill="none" xmlns="http://www.w3.org/2000/svg">
<g clip-path="url(#clip0_38_2)">
<path d="M500 327.84H0V328.09H500V327.84Z" fill="#EBEBEB"/>
<path d="M449.9 343.93H416.78V344.18H449.9V343.93Z" fill="#EBEBEB"/>
<path d="M331.22 346.65H322.53V346.9H331.22V346.65Z" fill="#EBEBEB"/>
<path d="M415.78 334.65H396.59V334.9H415.78V334.65Z" fill="#EBEBEB"/>
<path d="M95.65 336.33H52.46V336.58H95.65V336.33Z" fill="#EBEBEB"/>
<path d="M110.89 336.33H104.56V336.58H110.89V336.33Z" fill="#EBEBEB"/>
<path d="M225.15 340.55H131.47V340.8H225.15V340.55Z" fill="#EBEBEB"/>
<path d="M237 283.24H43.91C42.3974 283.237 40.9476 282.635 39.8789 281.564C38.8102 280.494 38.21 279.043 38.21 277.53V6.10001C38.21 4.58736 38.8102 3.13651 39.8789 2.06597C40.9476 0.995421 42.3974 0.392664 43.91 0.390015L237 0.390015C238.514 0.390015 239.967 0.991602 241.038 2.06243C242.108 3.13327 242.71 4.58563 242.71 6.10001V277.53C242.71 278.28 242.562 279.022 242.275 279.715C241.988 280.408 241.568 281.037 241.038 281.568C240.507 282.098 239.878 282.518 239.185 282.805C238.492 283.092 237.75 283.24 237 283.24ZM43.91 0.640015C42.4637 0.642664 41.0775 1.21908 40.0557 2.24274C39.0339 3.2664 38.46 4.65366 38.46 6.10001V277.53C38.46 278.976 39.0339 280.364 40.0557 281.387C41.0775 282.411 42.4637 282.987 43.91 282.99H237C238.447 282.987 239.835 282.411 240.858 281.388C241.881 280.365 242.457 278.977 242.46 277.53V6.10001C242.457 4.65274 241.881 3.26551 240.858 2.24213C239.835 1.21876 238.447 0.642658 237 0.640015H43.91Z" fill="black" fill-opacity="0.63"/>
<path d="M453.31 283.24H260.21C258.696 283.237 257.246 282.635 256.175 281.565C255.105 280.494 254.503 279.044 254.5 277.53V6.10001C254.503 4.58644 255.105 3.13562 256.175 2.06536C257.246 0.995095 258.696 0.392658 260.21 0.390015L453.31 0.390015C454.821 0.395307 456.268 0.99923 457.335 2.06949C458.401 3.13975 459 4.58909 459 6.10001V277.53C459 279.041 458.401 280.49 457.335 281.561C456.268 282.631 454.821 283.235 453.31 283.24ZM260.21 0.640015C258.763 0.642658 257.375 1.21876 256.352 2.24213C255.329 3.26551 254.753 4.65274 254.75 6.10001V277.53C254.753 278.977 255.329 280.365 256.352 281.388C257.375 282.411 258.763 282.987 260.21 282.99H453.31C454.757 282.987 456.145 282.411 457.168 281.388C458.191 280.365 458.767 278.977 458.77 277.53V6.10001C458.767 4.65274 458.191 3.26551 457.168 2.24213C456.145 1.21876 454.757 0.642658 453.31 0.640015H260.21Z" fill="black" fill-opacity="0.63"/>
<path d="M440.848 44.5862C443.836 31.9277 435.996 19.244 423.337 16.2563C410.679 13.2686 397.995 21.1084 395.007 33.7669C392.02 46.4254 399.86 59.1091 412.518 62.0968C425.177 65.0845 437.86 57.2447 440.848 44.5862Z" fill="#202636"/>
<path d="M437.735 42.3941C439.507 31.4748 432.092 21.186 421.173 19.4136C410.254 17.6411 399.965 25.0561 398.192 35.9755C396.42 46.8948 403.835 57.1835 414.754 58.956C425.674 60.7285 435.962 53.3135 437.735 42.3941Z" fill="#283044"/>
<path d="M417 25.44V39.44L407.72 34.19" stroke="#202636" stroke-width="2" stroke-linecap="round" stroke-linejoin="round"/>
<path d="M130.66 54.5H62.04V179.12H130.66V54.5Z" fill="black" fill-opacity="0.31"/>
<path d="M126 59.44H67V174.44H126V59.44Z" fill="#80A469"/>
<path d="M96.11 59.44L67 168.46V109.44L80.32 59.44H96.11Z" fill="white" fill-opacity="0.43"/>
<path d="M109.12 59.44L78.42 174.44H72.63L103.33 59.44H109.12Z" fill="white" fill-opacity="0.43"/>
<path d="M128.5 139.82H64V143.82H128.5V139.82Z" fill="black" fill-opacity="0.72"/>
<path d="M424.26 216.17C424.26 216.17 425.83 205.77 418.26 199.1C410.69 192.43 411.34 188.47 413.51 187.95C415.68 187.43 417.68 194.1 421.01 195.95C421.01 195.95 421.12 186.45 417.73 182.95C414.34 179.45 412.57 170.43 415.79 170.27C419.01 170.11 419.34 175.63 420.01 179.54C420.68 183.45 424.27 188.95 424.27 188.95C424.27 188.95 424.97 180.45 427.16 176.95C429.35 173.45 423.51 165.45 425.76 161.95C428.01 158.45 432.01 165.11 431.68 172.61C431.35 180.11 426.34 188.11 427.51 195.95C427.51 195.95 429.72 190.45 431.7 189.95C433.68 189.45 435.7 185.81 437.01 184.46C438.32 183.11 440.01 187.78 437.01 192.11C434.01 196.44 426.34 208.04 427.51 217.41L424.26 216.17Z" fill="#202636"/>
<path d="M419.72 211.44L417.24 227.02C417.059 228.151 417.126 229.309 417.436 230.412C417.746 231.515 418.291 232.537 419.034 233.409C419.778 234.281 420.702 234.981 421.742 235.461C422.782 235.941 423.914 236.19 425.06 236.19H427.71C428.857 236.191 429.99 235.944 431.031 235.464C432.073 234.985 432.998 234.285 433.742 233.413C434.487 232.541 435.033 231.518 435.344 230.414C435.654 229.31 435.721 228.152 435.54 227.02L433.06 211.44H419.72Z" fill="#202636"/>
<path d="M430.04 237.98H424.26V328.76H430.04V237.98Z" fill="#202636"/>
<path d="M409.52 237.98H403.74V328.76H409.52V237.98Z" fill="#202636"/>
<path d="M450.55 237.98H444.77V328.76H450.55V237.98Z" fill="#202636"/>
<path d="M453.98 232.18H400.31V241.84H453.98V232.18Z" fill="#202636"/>
<path d="M250 373C357.082 373 443.89 367.932 443.89 361.68C443.89 355.428 357.082 350.36 250 350.36C142.917 350.36 56.11 355.428 56.11 361.68C56.11 367.932 142.917 373 250 373Z" fill="black" fill-opacity="0.23"/>
<path d="M350 322.96V212.44H339V322.96L332 325.11V328.44H357V325.11L350 322.96Z" fill="#2E353A"/>
<path d="M210 212.44H199V322.96L192 325.11V328.44H217V325.11L210 322.96V212.44Z" fill="#2E353A"/>
<g opacity="0.2">
<path d="M350 225.44H339V322.96L332 325.11V328.44H357V325.11L350 322.96V225.44Z" fill="white"/>
<path d="M210 225.44H199V322.96L192 325.11V328.44H217V325.11L210 322.96V225.44Z" fill="black"/>
</g>
<path opacity="0.2" d="M384 216.44V38.44L165 38.44V216.44H384Z" fill="black"/>
<path d="M379.13 43.38H169.87V211.4H379.13V43.38Z" fill="#283044"/>
<path d="M193.5 58.44V103.94H266.01L193.5 58.44Z" stroke="white" stroke-miterlimit="10"/>
<path d="M197.14 104.05V100.33H193.42" fill="white"/>
<path d="M197.14 104.05V100.33H193.42" stroke="white" stroke-width="0.79" stroke-miterlimit="10"/>
<path d="M231.865 74.4752C231.538 74.4752 231.221 74.3975 230.913 74.242C230.608 74.0833 230.396 73.8501 230.275 73.5423L230.485 73.3899L230.323 74.38H229.561V67.24H230.418V70.6291L230.237 70.4959C230.396 70.2388 230.623 70.0294 230.918 69.8675C231.213 69.7025 231.529 69.62 231.865 69.62C232.3 69.62 232.674 69.7343 232.988 69.9627C233.303 70.188 233.544 70.4863 233.712 70.8576C233.883 71.2257 233.969 71.6224 233.969 72.0476C233.969 72.5014 233.875 72.9123 233.688 73.2805C233.501 73.6454 233.249 73.9357 232.931 74.1515C232.614 74.3673 232.259 74.4752 231.865 74.4752ZM231.76 73.7136C232.033 73.7136 232.27 73.639 232.47 73.4899C232.669 73.3376 232.823 73.1361 232.931 72.8854C233.039 72.6315 233.093 72.3523 233.093 72.0476C233.093 71.7303 233.039 71.4463 232.931 71.1956C232.823 70.9449 232.669 70.7465 232.47 70.6006C232.27 70.4546 232.033 70.3816 231.76 70.3816C231.516 70.3816 231.287 70.4435 231.075 70.5673C230.865 70.6878 230.696 70.8719 230.566 71.1194C230.435 71.3638 230.37 71.6732 230.37 72.0476C230.37 72.4379 230.435 72.7553 230.566 72.9996C230.696 73.244 230.865 73.4248 231.075 73.5423C231.287 73.6565 231.516 73.7136 231.76 73.7136Z" fill="white"/>
<path d="M196.695 143.185C196.368 143.185 196.051 143.107 195.743 142.952C195.438 142.793 195.226 142.56 195.105 142.252L195.315 142.1L195.153 143.09H194.391V135.95H195.248V139.339L195.067 139.206C195.226 138.949 195.453 138.739 195.748 138.578C196.043 138.413 196.359 138.33 196.695 138.33C197.13 138.33 197.504 138.444 197.818 138.673C198.133 138.898 198.374 139.196 198.542 139.568C198.713 139.936 198.799 140.332 198.799 140.758C198.799 141.211 198.705 141.622 198.518 141.99C198.331 142.355 198.079 142.646 197.761 142.862C197.444 143.077 197.089 143.185 196.695 143.185ZM196.59 142.424C196.863 142.424 197.1 142.349 197.3 142.2C197.5 142.048 197.653 141.846 197.761 141.595C197.869 141.342 197.923 141.062 197.923 140.758C197.923 140.44 197.869 140.156 197.761 139.906C197.653 139.655 197.5 139.457 197.3 139.311C197.1 139.165 196.863 139.092 196.59 139.092C196.346 139.092 196.118 139.153 195.905 139.277C195.696 139.398 195.526 139.582 195.396 139.829C195.266 140.074 195.2 140.383 195.2 140.758C195.2 141.148 195.266 141.465 195.396 141.71C195.526 141.954 195.696 142.135 195.905 142.252C196.118 142.366 196.346 142.424 196.59 142.424Z" fill="white"/>
<path d="M221.733 112.795C221.206 112.795 220.763 112.689 220.405 112.476C220.049 112.261 219.78 111.972 219.595 111.61C219.415 111.245 219.324 110.84 219.324 110.396C219.324 109.933 219.411 109.516 219.586 109.144C219.764 108.773 220.035 108.479 220.4 108.264C220.765 108.048 221.231 107.94 221.799 107.94C222.044 107.94 222.274 107.965 222.49 108.016C222.709 108.064 222.904 108.13 223.075 108.216L222.942 108.968C222.767 108.886 222.582 108.821 222.385 108.773C222.191 108.725 221.99 108.702 221.78 108.702C221.266 108.702 220.874 108.848 220.605 109.14C220.335 109.431 220.2 109.838 220.2 110.358C220.2 110.866 220.329 111.274 220.586 111.581C220.843 111.889 221.235 112.043 221.761 112.043C221.977 112.043 222.183 112.018 222.38 111.967C222.58 111.916 222.77 111.846 222.951 111.758L223.066 112.443C222.939 112.532 222.753 112.613 222.509 112.686C222.264 112.759 222.006 112.795 221.733 112.795Z" fill="white"/>
<path d="M196.543 157.155C196.016 157.155 195.573 157.049 195.215 156.836C194.859 156.621 194.59 156.332 194.406 155.97C194.225 155.605 194.134 155.2 194.134 154.756C194.134 154.293 194.221 153.876 194.396 153.504C194.574 153.133 194.845 152.839 195.21 152.624C195.575 152.408 196.041 152.3 196.609 152.3C196.854 152.3 197.084 152.325 197.3 152.376C197.519 152.424 197.714 152.49 197.885 152.576L197.752 153.328C197.577 153.246 197.392 153.181 197.195 153.133C197.001 153.085 196.8 153.062 196.59 153.062C196.076 153.062 195.684 153.208 195.415 153.5C195.145 153.791 195.01 154.198 195.01 154.718C195.01 155.226 195.139 155.634 195.396 155.941C195.653 156.249 196.045 156.403 196.571 156.403C196.787 156.403 196.993 156.378 197.19 156.327C197.39 156.276 197.58 156.206 197.761 156.118L197.876 156.803C197.749 156.892 197.563 156.973 197.319 157.046C197.074 157.119 196.816 157.155 196.543 157.155Z" fill="white"/>
<path d="M187.106 85.3052C186.817 85.3052 186.565 85.2465 186.349 85.1291C186.133 85.0117 185.965 84.8514 185.845 84.6483C185.727 84.4452 185.668 84.2136 185.668 83.9534C185.668 83.69 185.726 83.4647 185.84 83.2775C185.957 83.0871 186.113 82.93 186.306 82.8062C186.503 82.6793 186.722 82.5793 186.963 82.5063C187.204 82.4302 187.453 82.3762 187.71 82.3445C187.971 82.3096 188.22 82.2905 188.458 82.2874C188.458 81.8431 188.371 81.5527 188.196 81.4163C188.021 81.2798 187.769 81.2116 187.439 81.2116C187.265 81.2116 187.077 81.2386 186.877 81.2925C186.681 81.3465 186.459 81.4591 186.211 81.6305L186.087 80.9355C186.275 80.7927 186.508 80.6769 186.787 80.5881C187.066 80.496 187.36 80.45 187.668 80.45C188.061 80.45 188.378 80.5198 188.62 80.6595C188.861 80.7959 189.037 81.0276 189.148 81.3544C189.259 81.6813 189.315 82.1255 189.315 82.6872V83.6392C189.315 83.8613 189.324 84.0454 189.343 84.1914C189.365 84.3342 189.413 84.4421 189.486 84.5151C189.562 84.5849 189.683 84.6198 189.848 84.6198H189.933L189.8 85.3052H189.733C189.457 85.3052 189.243 85.2782 189.091 85.2243C188.942 85.1703 188.827 85.0926 188.748 84.9911C188.669 84.8895 188.597 84.7657 188.534 84.6198C188.359 84.8229 188.153 84.9879 187.915 85.1148C187.677 85.2417 187.407 85.3052 187.106 85.3052ZM187.268 84.6198C187.496 84.6198 187.717 84.5627 187.929 84.4484C188.145 84.3342 188.321 84.1819 188.458 83.9915V82.8776C188.004 82.8935 187.636 82.9379 187.353 83.0109C187.074 83.0839 186.87 83.1934 186.739 83.3393C186.609 83.4853 186.544 83.6741 186.544 83.9058C186.544 84.1565 186.611 84.3389 186.744 84.4532C186.881 84.5642 187.055 84.6198 187.268 84.6198Z" fill="white"/>
<path d="M195.486 129.205C195.197 129.205 194.945 129.147 194.729 129.029C194.513 128.912 194.345 128.751 194.225 128.548C194.107 128.345 194.049 128.114 194.049 127.853C194.049 127.59 194.106 127.365 194.22 127.177C194.337 126.987 194.493 126.83 194.686 126.706C194.883 126.579 195.102 126.479 195.343 126.406C195.584 126.33 195.834 126.276 196.091 126.244C196.351 126.21 196.6 126.191 196.838 126.187C196.838 125.743 196.751 125.453 196.576 125.316C196.402 125.18 196.149 125.112 195.819 125.112C195.645 125.112 195.458 125.139 195.258 125.193C195.061 125.246 194.839 125.359 194.591 125.53L194.467 124.836C194.655 124.693 194.888 124.577 195.167 124.488C195.446 124.396 195.74 124.35 196.048 124.35C196.441 124.35 196.759 124.42 197 124.559C197.241 124.696 197.417 124.928 197.528 125.254C197.639 125.581 197.695 126.026 197.695 126.587V127.539C197.695 127.761 197.704 127.945 197.723 128.091C197.745 128.234 197.793 128.342 197.866 128.415C197.942 128.485 198.063 128.52 198.228 128.52H198.314L198.18 129.205H198.114C197.838 129.205 197.623 129.178 197.471 129.124C197.322 129.07 197.208 128.993 197.128 128.891C197.049 128.79 196.978 128.666 196.914 128.52C196.74 128.723 196.533 128.888 196.295 129.015C196.057 129.142 195.788 129.205 195.486 129.205ZM195.648 128.52C195.876 128.52 196.097 128.463 196.31 128.348C196.525 128.234 196.701 128.082 196.838 127.891V126.778C196.384 126.793 196.016 126.838 195.734 126.911C195.454 126.984 195.25 127.093 195.12 127.239C194.989 127.385 194.924 127.574 194.924 127.806C194.924 128.056 194.991 128.239 195.124 128.353C195.261 128.464 195.435 128.52 195.648 128.52Z" fill="white"/>
<path d="M283 58.94H323" stroke="white" stroke-miterlimit="10"/>
<path d="M283 66.94H305" stroke="white" stroke-miterlimit="10"/>
<path d="M283 72.94H314" stroke="white" stroke-miterlimit="10"/>
<path d="M283 79.94H309" stroke="white" stroke-miterlimit="10"/>
<path d="M283 87.94H322" stroke="white" stroke-miterlimit="10"/>
<path d="M283 94.94H321" stroke="white" stroke-miterlimit="10"/>
<path d="M283 101.94H309" stroke="white" stroke-miterlimit="10"/>
<path d="M328 162.94H355" stroke="white" stroke-miterlimit="10"/>
<path d="M328 170.94H343" stroke="white" stroke-miterlimit="10"/>
<path d="M328 176.94H349" stroke="white" stroke-miterlimit="10"/>
<path d="M328 183.94H346" stroke="white" stroke-miterlimit="10"/>
<path d="M191 175.94H218" stroke="white" stroke-miterlimit="10"/>
<path d="M191 183.94H206" stroke="white" stroke-miterlimit="10"/>
<path d="M191 189.94H212" stroke="white" stroke-miterlimit="10"/>
<path d="M191 196.94H209" stroke="white" stroke-miterlimit="10"/>
<path d="M336 72.94H362" stroke="white" stroke-miterlimit="10"/>
<path d="M336 79.94H362" stroke="white" stroke-miterlimit="10"/>
<path d="M336 86.94H354" stroke="white" stroke-miterlimit="10"/>
<path d="M259 175.94H285" stroke="white" stroke-miterlimit="10"/>
<path d="M259 182.94H285" stroke="white" stroke-miterlimit="10"/>
<path d="M259 189.94H277" stroke="white" stroke-miterlimit="10"/>
<path d="M210 129.94H268" stroke="white" stroke-miterlimit="10"/>
<path d="M210 142.94H268" stroke="white" stroke-miterlimit="10"/>
<path d="M210 155.94H268" stroke="white" stroke-miterlimit="10"/>
<path d="M306.47 163C316.549 163 324.72 154.829 324.72 144.75C324.72 134.671 316.549 126.5 306.47 126.5C296.391 126.5 288.22 134.671 288.22 144.75C288.22 154.829 296.391 163 306.47 163Z" fill="white" stroke="white" stroke-width="0.79" stroke-miterlimit="10"/>
<path d="M306.5 126.44V144.94H325" fill="white"/>
<path d="M306.5 126.44V144.94H325" stroke="white" stroke-miterlimit="10"/>
<path d="M300.26 134.05L284.82 125.05C282.359 125.234 279.884 125.12 277.45 124.71C273.45 124.02 272.59 123.98 273.07 120.83C273.55 117.68 272.88 113.48 274.07 113.04C275.26 112.6 283.68 116.15 285.14 118.55L300.72 124.13L300.26 134.05Z" fill="#B97964"/>
<path d="M345.69 118.899V136.899C345.69 136.899 341.85 138.169 337.08 139.499C331.61 141.019 324.92 142.619 321.44 142.449C314.94 142.129 292.94 130.709 292.94 130.709L296.94 123.089C296.94 123.089 320.94 131.269 323.94 130.679C326.94 130.089 345.69 118.899 345.69 118.899Z" fill="#4A5879"/>
<path opacity="0.2" d="M346 127.58V136.82C346 136.82 342.16 138.09 337.39 139.42C339.15 134.06 343.54 129.69 346 127.58Z" fill="black"/>
<path d="M350 182.88C350 182.88 339.2 240.64 336.31 264.39C332.53 295.33 317.08 340.59 317.08 340.59L323.26 342.19C323.26 342.19 345.04 303.72 349.26 269.11C366.56 233.75 367.95 190.19 367.95 190.19L350 182.88Z" fill="#B97964"/>
<path d="M305.58 354.56C306.58 354.102 307.653 353.828 308.75 353.75C308.75 353.75 312.55 351.52 316.32 342.83H320.55C321.265 342.84 321.96 343.069 322.541 343.485C323.122 343.902 323.561 344.486 323.8 345.16C323.87 345.346 323.91 345.542 323.92 345.74C323.879 346.766 323.772 347.788 323.6 348.8C322.972 352.163 322.144 355.486 321.12 358.75L320.4 358.57L321.71 352.26C322.14 350.11 319.89 352.18 318.84 354.35C317.79 356.52 316.19 358.69 311.52 357.62C306.07 356.33 303.87 355.54 305.58 354.56Z" fill="#2E353A"/>
<path d="M361.29 181.95C361.29 181.95 362.64 240.71 364.72 264.51C367.42 295.56 361.66 343.04 361.66 343.04L368.04 343.33C368.04 343.33 381.39 301.19 378.39 266.45C388 228.27 380.39 185.37 380.39 185.37L361.29 181.95Z" fill="#B97964"/>
<path d="M351.74 356.49C352.687 355.929 353.727 355.543 354.81 355.35C354.81 355.35 358.35 352.72 361.15 343.68L365.36 343.19C366.075 343.126 366.793 343.284 367.415 343.642C368.038 343.999 368.535 344.54 368.84 345.19C368.93 345.369 368.99 345.562 369.02 345.76C369.085 346.782 369.085 347.808 369.02 348.83C368.764 352.241 368.303 355.634 367.64 358.99L366.9 358.89L367.52 352.47C367.72 350.29 365.7 352.59 364.89 354.86C364.08 357.13 362.73 359.46 357.96 358.86C352.42 358.2 350.15 357.65 351.74 356.49Z" fill="#2E353A"/>
<path d="M382.83 82.02C382.83 82.02 386 82.19 388.67 87.4C391.34 92.61 388 98.4 387.33 101.16C386.66 103.92 383.33 106.38 388.83 110.58C394.33 114.78 397.63 119.22 393.17 123.75C388.71 128.28 393.61 131.75 387.17 135.1C380.73 138.45 357 133.44 354 126.94C351 120.44 354.62 115.5 354.81 113.55C355 111.6 351 109.62 350 103.28C349 96.94 354.12 95.57 354.81 92.67C355.5 89.77 352.29 86.1 354.81 79.94C357.33 73.78 382.49 72.39 382.83 82.02Z" fill="#2E353A"/>
<path d="M398.49 168.619C394.7 169.109 390.32 161.709 387.15 154.809C384.44 148.959 382.55 143.459 382.55 143.459L384.55 137.819L389.77 123.099C389.77 123.099 393.42 128.189 398.91 147.569C399.79 150.689 400.85 154.179 401.82 158.079C401.813 159.065 402.117 160.028 402.69 160.829C402.69 163.759 403.04 168.029 398.49 168.619Z" fill="#4A5879"/>
<path opacity="0.2" d="M387.39 154.72C384.69 148.87 382.83 143.37 382.83 143.37L384.83 137.73C386.23 141.63 388.28 148.7 387.39 154.72Z" fill="black"/>
<path opacity="0.2" d="M403 160.74C401 162.06 398.91 162.04 397.74 159.63C395.37 154.76 397.66 149.94 399.28 147.47C400.17 150.59 401.19 154.08 402.16 157.98C402.128 158.967 402.423 159.938 403 160.74Z" fill="black"/>
<path d="M343.34 166.6C343.34 166.6 363.34 173.77 382.4 172.44C382.4 172.44 380.67 148.83 370.67 144.64C360.67 140.45 343.34 146.44 343.34 166.6Z" fill="#4A5879"/>
<path opacity="0.2" d="M343.34 166.6C343.34 166.6 363.34 173.77 382.4 172.44C382.4 172.44 380.67 148.83 370.67 144.64C360.67 140.45 343.34 146.44 343.34 166.6Z" fill="black"/>
<path d="M346.17 168.29L379.17 171.14C379.491 162.96 380.668 154.835 382.68 146.9C383.47 143.74 384.46 140.21 385.73 136.13C386.41 133.95 387.16 131.61 388 129.13C388.63 127.22 389.31 125.19 390.06 123.05C385.579 121.619 381 120.513 376.36 119.74C371.463 118.87 366.511 118.349 361.54 118.18C355.12 118.18 347.74 118.85 347.74 118.85C347.74 118.85 346.69 119.1 346.03 125.91C345.44 132.26 344.85 145.04 346.17 168.29Z" fill="#4A5879"/>
<path d="M346.33 173.24L379.33 175.96C379.85 167.76 380.24 156.68 382.71 146.9C383.5 143.74 384.49 140.21 385.76 136.13C386.44 133.95 387.19 131.61 388.03 129.13C388.66 127.22 389.34 125.19 390.09 123.05C385.609 121.619 381.03 120.513 376.39 119.74C371.493 118.87 366.541 118.349 361.57 118.18C355.15 118.18 347.77 118.85 347.77 118.85C347.77 118.85 346.72 119.1 346.06 125.91C345.44 132.26 345 149.99 346.33 173.24Z" fill="#2E353A"/>
<path d="M364.27 125.39C372.41 124.39 374.85 120.87 374.85 120.87C369.69 116 373.98 107.56 373.98 107.56L364.19 109.39C364.419 110.752 364.546 112.129 364.57 113.51C364.65 119.51 361.96 119.51 361.96 119.51C360.24 122.77 364.27 125.39 364.27 125.39Z" fill="#B97964"/>
<path opacity="0.2" d="M364.19 109.39C364.419 110.752 364.546 112.129 364.57 113.51C371.18 113.51 373.98 107.51 373.98 107.51L364.19 109.39Z" fill="black"/>
<path d="M369.6 82.05C361.09 81.59 358.1 85.99 357 94.73C355.62 105.65 357.62 113.57 368.39 111.81C383 109.39 383.74 82.83 369.6 82.05Z" fill="#B97964"/>
<path d="M362.52 94.56C361.768 95.7922 360.872 96.9303 359.85 97.95C360.081 98.3161 360.409 98.6114 360.797 98.8036C361.185 98.9959 361.619 99.0777 362.05 99.04L362.52 94.56Z" fill="#A24E3F"/>
<path d="M367.77 94.14C367.77 94.84 368.05 95.44 368.52 95.47C368.99 95.5 369.4 94.97 369.46 94.28C369.52 93.59 369.18 92.98 368.71 92.95C368.24 92.92 367.83 93.45 367.77 94.14Z" fill="#2E353A"/>
<path d="M368.91 93L367.43 92.28C367.43 92.28 368.09 93.62 368.91 93Z" fill="#2E353A"/>
<path d="M359.1 93.32C359.05 94.02 359.38 94.61 359.85 94.65C360.32 94.69 360.73 94.15 360.79 93.45C360.85 92.75 360.51 92.16 360.05 92.12C359.59 92.08 359.16 92.62 359.1 93.32Z" fill="#2E353A"/>
<path d="M360.24 92.17L358.76 91.46C358.76 91.46 359.42 92.79 360.24 92.17Z" fill="#2E353A"/>
<path d="M368.18 88.27C368.857 88.2244 369.536 88.3351 370.164 88.5935C370.791 88.8518 371.351 89.2509 371.8 89.76" stroke="#2E353A" stroke-width="0.72" stroke-linecap="round" stroke-linejoin="round"/>
<path d="M362 87.57C361.426 87.3936 360.82 87.3488 360.226 87.4388C359.632 87.5288 359.066 87.7514 358.57 88.09" stroke="#2E353A" stroke-width="0.72" stroke-linecap="round" stroke-linejoin="round"/>
<path d="M363.1 102.45C363.45 103.428 363.727 104.431 363.93 105.45H364.49C366.98 105.34 368.09 104.45 368.58 103.52C368.806 103.06 368.916 102.552 368.9 102.04C368.909 101.746 368.872 101.453 368.79 101.17C367.298 101.912 365.665 102.328 364 102.39C363.43 102.45 363.1 102.45 363.1 102.45Z" fill="#2E353A"/>
<path d="M364 102.39L364.27 103.27C366.62 103.16 368.27 102.76 368.95 102.02C368.959 101.726 368.921 101.433 368.84 101.15C367.334 101.906 365.684 102.329 364 102.39Z" fill="white"/>
<path d="M364.49 105.44C366.98 105.33 368.09 104.44 368.58 103.51C367.634 103.578 366.708 103.808 365.84 104.19C365.27 104.455 364.798 104.892 364.49 105.44Z" fill="#DE5753"/>
<path d="M378.12 96.91C378.12 96.91 374.52 89.7 375.42 84.33C375.42 84.33 358.93 76.52 357.16 93.59C357.16 93.59 356.34 78.3 370.99 78.76C385.64 79.22 384.41 100.63 376.5 106.59C376.5 106.59 380.34 101.39 378.12 96.91Z" fill="#2E353A"/>
<path d="M376.63 98.63C376.696 98.1438 376.858 97.6756 377.106 97.252C377.353 96.8284 377.682 96.4578 378.073 96.1614C378.464 95.8651 378.91 95.6489 379.385 95.5251C379.859 95.4013 380.354 95.3724 380.84 95.44C383.46 95.87 384.42 101.35 377.84 102.29C376.83 102.39 376.35 101.48 376.63 98.63Z" fill="#B97964"/>
<path d="M382.4 121.81C382.4 121.81 372.84 129.56 363.95 129.44C355.06 129.32 351.95 119.31 351.95 119.31C351.95 119.31 365.73 115.23 382.4 121.81Z" fill="#B97964"/>
<path d="M381.27 120.479C381.27 120.479 365.59 148.559 382.09 172.569C382.09 172.569 384.33 142.959 389.76 123.139L381.27 120.479Z" fill="#4A5879"/>
<path d="M352.81 118.13C352.81 118.13 352.67 138.01 349.81 145.39C346.95 152.77 343.32 166.6 343.32 166.6C343.32 166.6 340.56 133.51 345.98 118.81L352.81 118.13Z" fill="#4A5879"/>
<path d="M375.42 84.33C375.42 84.33 369.08 82.14 363.5 84.33C357.92 86.52 359.44 92.33 356.61 93.39" stroke="#2E353A" stroke-width="0.5" stroke-linecap="round" stroke-linejoin="round"/>
<path d="M425.75 114.55L423.12 113.06L413.5 115.69L400.5 112.31L397.5 122.19C397.5 122.19 396.88 133.19 397.5 133.31C398.12 133.43 412.38 134.19 412.38 134.19L419.62 129.56L425.75 114.55Z" fill="#E0E0E0"/>
<path d="M397 113.06L391.25 135.82L409 137.81L421.25 134.44L427.5 113.06L413.5 116.69L397 113.06Z" fill="#4A5879"/>
<path opacity="0.4" d="M413.5 116.69L409 137.82L391.25 135.83L397 113.06L413.5 116.69Z" fill="white"/>
<path opacity="0.2" d="M413.5 116.69L409 137.81L421.25 134.44L427.5 113.06L413.5 116.69Z" fill="white"/>
<path d="M397.92 158.44L406.17 142.59C405.871 140.142 405.871 137.668 406.17 135.22C406.67 131.22 406.67 130.33 409.83 130.66C412.99 130.99 417.17 130.13 417.67 131.3C418.17 132.47 415 141.04 412.67 142.61L407.82 158.44H397.92Z" fill="#B97964"/>
<path d="M394.94 167.229C400.19 171.689 406.19 167.859 409.52 155.029L399.19 153.689L394.94 167.229Z" fill="#4A5879"/>
<path d="M400.03 150.78L397.92 154.51L411 156.27V152.44L400.03 150.78Z" fill="#2E353A"/>
<path d="M292.72 131.59L296.34 133.87L298.71 120.88L294.88 120.7L292.72 131.59Z" fill="#2E353A"/>
<path d="M346.33 173.24L325.53 295.46C325.53 295.46 375.87 301.46 392.93 297.95C392.93 297.95 397.12 210.48 379.31 175.95L346.33 173.24Z" fill="#4A5879"/>
<path d="M278.79 119.52L273.61 114.17C270.52 110.94 266.32 106.71 262.15 102.46L256 96.25L250.61 90.85L246.8 87.03C246.34 86.57 245.97 86.21 245.73 85.96C245.625 85.9027 245.51 85.8678 245.391 85.8575C245.273 85.8472 245.153 85.8616 245.04 85.9L246.45 84.48C246.412 84.5929 246.397 84.7125 246.408 84.8313C246.418 84.9501 246.453 85.0654 246.51 85.17L247.59 86.24L251.43 90.03L256.83 95.39L263.07 101.52C267.34 105.68 271.59 109.85 274.83 112.93L280.21 118.09L278.79 119.52Z" fill="#2E353A"/>
<path d="M317.08 340.56C317.08 340.56 311.8 351.62 308.75 353.75C308.75 353.75 312.83 356.19 317.08 350.75C322.58 343.75 323.92 345.7 323.92 345.7C323.811 344.495 323.59 343.304 323.26 342.14C322.43 339.9 317.08 340.56 317.08 340.56Z" fill="#B97964"/>
<path d="M362.31 340.47C362.31 340.47 360.81 344.56 358.81 349.06C357.892 351.393 356.534 353.529 354.81 355.35C354.81 355.35 358.29 356.48 360.16 354.35C362.03 352.22 365.24 344.3 368.84 345.21C368.649 344.57 368.38 343.955 368.04 343.38C367.5 342.44 362.31 340.47 362.31 340.47Z" fill="#B97964"/>
<path d="M194.52 359.44L195.34 235.19H187.21L188.02 359.44H194.52Z" fill="#4A5879"/>
<path opacity="0.2" d="M195.34 235.44L195.18 260.44H187.37L187.21 235.44H195.34Z" fill="black"/>
<path d="M257.67 359.44L250.37 235.19H242.24L251.17 359.44H257.67Z" fill="#4A5879"/>
<path opacity="0.2" d="M250.81 242.44H242.78L242.24 235.44H250.37L250.81 242.44Z" fill="black"/>
<path d="M131.38 359.44L140.3 235.19H132.17L124.87 359.44H131.38Z" fill="#4A5879"/>
<path opacity="0.3" d="M131.38 359.44L139.76 242.8L140.3 235.44H132.17L131.73 242.8L124.87 359.44H131.38Z" fill="white"/>
<path opacity="0.2" d="M132.17 235.44H140.3L139.76 242.44H131.73L132.17 235.44Z" fill="black"/>
<path d="M125.73 231.39H256.81V236.9C256.81 237.473 256.582 238.022 256.177 238.427C255.772 238.832 255.223 239.06 254.65 239.06H127.89C127.317 239.06 126.768 238.832 126.363 238.427C125.958 238.022 125.73 237.473 125.73 236.9V231.39Z" fill="#4A5879"/>
<path opacity="0.4" d="M125.73 231.39H256.81V236.9C256.81 237.473 256.582 238.022 256.177 238.427C255.772 238.832 255.223 239.06 254.65 239.06H127.89C127.317 239.06 126.768 238.832 126.363 238.427C125.958 238.022 125.73 237.473 125.73 236.9V231.39Z" fill="#9BA6C1"/>
<path opacity="0.2" d="M256.81 231.35H125.73V235.19H256.81V231.35Z" fill="black"/>
<path d="M260.61 232.39H121.93C121.357 232.39 120.808 232.162 120.403 231.757C119.998 231.352 119.77 230.803 119.77 230.23C119.77 229.657 119.998 229.108 120.403 228.703C120.808 228.298 121.357 228.07 121.93 228.07H260.61C261.183 228.07 261.732 228.298 262.137 228.703C262.542 229.108 262.77 229.657 262.77 230.23C262.77 230.803 262.542 231.352 262.137 231.757C261.732 232.162 261.183 232.39 260.61 232.39Z" fill="#4A5879"/>
<path opacity="0.4" d="M260.61 232.39H121.93C121.357 232.39 120.808 232.162 120.403 231.757C119.998 231.352 119.77 230.803 119.77 230.23C119.77 229.657 119.998 229.108 120.403 228.703C120.808 228.298 121.357 228.07 121.93 228.07H260.61C261.183 228.07 261.732 228.298 262.137 228.703C262.542 229.108 262.77 229.657 262.77 230.23C262.77 230.803 262.542 231.352 262.137 231.757C261.732 232.162 261.183 232.39 260.61 232.39Z" fill="#9BA6C1"/>
<path d="M196.5 213.69L187.75 229.85" stroke="#2E353A" stroke-width="2" stroke-miterlimit="10"/>
<path d="M117.12 192.39C117.12 192.39 125.03 178.32 126.33 175.57C127.63 172.82 131.12 153.45 131.12 153.45C130.804 152.517 130.596 151.55 130.5 150.57C130.5 149.57 131.12 144.95 131.12 144.95C131.12 144.95 131.12 144.57 133.62 143.82C136.12 143.07 138.88 142.07 139.12 143.2C139.36 144.33 138.75 152.07 138 152.82C137.417 153.445 136.882 154.114 136.4 154.82C136.4 154.82 134.29 175.49 133.33 178.53C132.37 181.57 124.5 197.84 124.5 197.84L117.12 192.39Z" fill="#E4897B"/>
<path d="M154.43 209.51C154.43 209.51 173.93 218.6 176.75 219.74C179.57 220.88 188.11 221.26 188.11 221.26C189.024 220.89 189.976 220.625 190.95 220.47C191.95 220.41 196.6 220.77 196.6 220.77C196.6 220.77 196.97 220.77 197.87 223.2C198.77 225.63 199.87 228.34 198.81 228.66C197.75 228.98 189.92 228.79 189.13 228.09L188.34 227.38C188.34 227.38 177.29 229.68 174.2 228.9C171.11 228.12 149.41 221.19 149.41 221.19L154.43 209.51Z" fill="#E4897B"/>
<path d="M127.36 194.959C126.653 198.471 125.174 201.78 123.03 204.649C118.81 210.649 112.86 214.549 111.25 208.379C108.8 199.059 119.19 187.379 119.19 187.379L127.36 194.959Z" fill="#4A5879"/>
<path opacity="0.2" d="M127.67 194.87C126.963 198.381 125.484 201.691 123.34 204.56C122.864 204.092 122.498 203.525 122.266 202.9C122.034 202.274 121.944 201.605 122 200.94C122.58 196.77 127.67 194.87 127.67 194.87Z" fill="black"/>
<path d="M148.6 187.88C148.037 189.932 146.89 191.776 145.3 193.19C142.946 195.3 139.911 196.493 136.75 196.55C133.624 196.625 130.589 195.498 128.27 193.4C123.68 189.26 123.82 184.5 123.27 176.4C122.72 168.3 131.52 162.14 140.43 165.4C149.34 168.66 150.6 180.61 148.6 187.88Z" fill="#E4897B"/>
<path d="M137.65 160.22C137.65 160.22 143.88 157.94 148.25 161.56C152.62 165.18 152.38 173.94 148.25 178.06C148.25 178.06 149.38 176.56 146.12 172.94C142.86 169.32 137.65 160.22 137.65 160.22Z" fill="#2E353A"/>
<path opacity="0.2" d="M145.3 193.19C142.946 195.3 139.911 196.493 136.75 196.55C137.336 195.196 138.289 194.032 139.5 193.19C141.38 194.15 143.71 193.7 145.3 193.19Z" fill="black"/>
<path d="M146.9 325.69L145.84 332.32L144.87 338.44H136L136.77 330.61L137.5 323.11L146.9 325.69Z" fill="#E4897B"/>
<path d="M144.37 334.96L135.37 334.4C135.295 334.392 135.219 334.398 135.147 334.42C135.075 334.441 135.007 334.476 134.949 334.524C134.89 334.571 134.841 334.63 134.806 334.696C134.77 334.762 134.747 334.835 134.74 334.91L133.85 342.01C133.831 342.383 133.958 342.749 134.205 343.029C134.451 343.309 134.798 343.482 135.17 343.51C138.31 343.66 139.82 343.57 143.78 343.78C146.21 343.93 151 344.45 154.36 344.12C157.72 343.79 157.3 340.49 155.85 340.33C152.42 339.94 147.85 337.42 145.72 335.5C145.341 335.177 144.867 334.988 144.37 334.96Z" fill="#2E353A"/>
<path d="M147.13 336.5C146.406 336.441 145.692 336.3 145 336.08C144.965 336.073 144.933 336.055 144.909 336.028C144.885 336 144.872 335.966 144.87 335.93C144.868 335.896 144.874 335.861 144.888 335.83C144.902 335.799 144.923 335.771 144.95 335.75C145.22 335.58 147.59 334.18 148.55 334.62C148.659 334.671 148.754 334.749 148.824 334.847C148.894 334.946 148.937 335.06 148.95 335.18C148.998 335.357 148.997 335.544 148.945 335.721C148.894 335.897 148.796 336.056 148.66 336.18C148.209 336.478 147.662 336.592 147.13 336.5ZM148.39 334.99C147.88 334.75 146.51 335.34 145.54 335.88C146.95 336.25 148.01 336.27 148.41 335.88C148.494 335.797 148.555 335.693 148.586 335.579C148.618 335.465 148.619 335.345 148.59 335.23C148.582 335.171 148.559 335.114 148.525 335.065C148.49 335.017 148.444 334.977 148.39 334.95V334.99Z" fill="#4A5879"/>
<path d="M145 336.09C144.95 336.051 144.918 335.993 144.91 335.93C144.91 335.86 144.91 333.52 145.73 332.78C145.842 332.689 145.972 332.622 146.112 332.586C146.252 332.55 146.398 332.544 146.54 332.57C146.701 332.586 146.851 332.654 146.969 332.764C147.087 332.875 147.164 333.021 147.19 333.18C147.31 334.06 146.01 335.67 145.19 336.09C145.179 336.105 145.164 336.116 145.148 336.124C145.131 336.132 145.113 336.137 145.095 336.137C145.077 336.137 145.059 336.132 145.042 336.124C145.026 336.116 145.011 336.105 145 336.09ZM146.3 332.97C146.15 332.961 146.003 333.011 145.89 333.11C145.404 333.854 145.166 334.733 145.21 335.62C145.989 335.05 146.53 334.214 146.73 333.27C146.73 333.16 146.66 333.03 146.4 332.98L146.3 332.97Z" fill="#4A5879"/>
<path opacity="0.2" d="M146.9 325.69L145.84 332.32L136.77 330.61L137.5 323.11L146.9 325.69Z" fill="black"/>
<path d="M157.67 275.32C153.56 269.9 142.93 267.15 134.38 265.77L131.5 287.23C136.77 288.31 138.96 291.23 139.25 292.44C140.64 298.18 134 328.1 134 328.1L147.81 331.44C147.81 331.44 165 284.99 157.67 275.32Z" fill="#2E353A"/>
<path opacity="0.2" d="M157.67 275.32C153.56 269.9 142.93 267.15 134.38 265.77L131.5 287.23C136.77 288.31 138.96 291.23 139.25 292.44C140.64 298.18 134 328.1 134 328.1L147.81 331.44C147.81 331.44 165 284.99 157.67 275.32Z" fill="black"/>
<path d="M171.9 325.69L170.84 332.32L169.87 338.44H161L161.77 330.61L162.5 323.11L171.9 325.69Z" fill="#E4897B"/>
<path d="M169.37 334.96L160.37 334.4C160.295 334.392 160.219 334.398 160.147 334.42C160.074 334.441 160.007 334.476 159.948 334.524C159.89 334.571 159.841 334.63 159.805 334.696C159.77 334.762 159.747 334.835 159.74 334.91L158.85 342.01C158.831 342.383 158.958 342.749 159.204 343.029C159.451 343.309 159.798 343.482 160.17 343.51C163.31 343.66 164.82 343.57 168.78 343.78C171.21 343.93 176 344.45 179.36 344.12C182.72 343.79 182.3 340.49 180.85 340.33C177.42 339.94 172.85 337.42 170.72 335.5C170.341 335.177 169.867 334.988 169.37 334.96Z" fill="#2E353A"/>
<path d="M172.13 336.5C171.406 336.441 170.692 336.3 170 336.08C169.965 336.073 169.933 336.055 169.909 336.028C169.885 336 169.872 335.966 169.87 335.93C169.868 335.896 169.874 335.861 169.888 335.83C169.902 335.799 169.923 335.771 169.95 335.75C170.22 335.58 172.59 334.18 173.55 334.62C173.659 334.671 173.754 334.749 173.824 334.847C173.894 334.946 173.937 335.06 173.95 335.18C173.998 335.357 173.997 335.544 173.945 335.721C173.894 335.897 173.796 336.056 173.66 336.18C173.209 336.478 172.662 336.592 172.13 336.5ZM173.39 334.99C172.88 334.75 171.51 335.34 170.54 335.88C171.95 336.25 173.01 336.27 173.41 335.88C173.494 335.797 173.555 335.693 173.586 335.579C173.618 335.465 173.619 335.345 173.59 335.23C173.582 335.171 173.559 335.114 173.525 335.065C173.49 335.017 173.444 334.977 173.39 334.95V334.99Z" fill="#4A5879"/>
<path d="M170 336.09C169.95 336.051 169.918 335.993 169.91 335.93C169.91 335.86 169.91 333.52 170.73 332.78C170.842 332.689 170.972 332.622 171.112 332.586C171.252 332.55 171.398 332.544 171.54 332.57C171.701 332.586 171.851 332.654 171.969 332.764C172.087 332.875 172.164 333.021 172.19 333.18C172.31 334.06 171.01 335.67 170.19 336.09C170.179 336.105 170.164 336.116 170.148 336.124C170.131 336.132 170.113 336.137 170.095 336.137C170.077 336.137 170.059 336.132 170.042 336.124C170.026 336.116 170.011 336.105 170 336.09ZM171.3 332.97C171.15 332.961 171.003 333.011 170.89 333.11C170.404 333.854 170.166 334.733 170.21 335.62C170.989 335.05 171.53 334.214 171.73 333.27C171.73 333.16 171.66 333.03 171.4 332.98L171.3 332.97Z" fill="#4A5879"/>
<path opacity="0.2" d="M171.9 325.69L170.84 332.32L161.77 330.61L162.5 323.11L171.9 325.69Z" fill="black"/>
<path d="M128.46 192.07C128.46 196.82 127.9 201.35 124.97 203.47C129.02 206.929 133.546 209.789 138.41 211.96C143.61 208.28 141.21 205.23 141.21 205.23C136.66 202.73 138.08 196.91 139.5 193.23C139.5 193.23 138.38 191.42 132 191.39C129.17 191.39 128.46 192.07 128.46 192.07Z" fill="#E4897B"/>
<path d="M103.91 260.62C103.91 260.62 94.61 286.93 120.97 286.93C147.33 286.93 149.46 276.65 147.23 264.54L103.91 260.62Z" fill="#2E353A"/>
<path d="M147.23 264.47C147.23 264.47 175.33 265.65 182.67 275.32C190.01 284.99 172.81 331.44 172.81 331.44L159 328.1C159 328.1 166.59 296.41 163.73 292.32C160.87 288.23 145.33 287.96 124.33 286.87C103.33 285.78 147.23 264.47 147.23 264.47Z" fill="#2E353A"/>
<path d="M122.07 202.779L124.66 196.629C124.66 196.629 139.61 197.169 144.15 203.969C148.69 210.769 122.07 202.779 122.07 202.779Z" fill="#4A5879"/>
<path d="M152.915 212.051C153.365 219.741 152.915 235.541 147.275 264.551L103.955 260.631C104.235 254.501 113.405 233.501 111.455 205.841C111.383 204.861 111.504 203.877 111.813 202.944C112.122 202.011 112.612 201.149 113.255 200.405C113.898 199.662 114.681 199.053 115.559 198.613C116.438 198.173 117.395 197.911 118.375 197.841H118.625C120.755 197.761 133.745 201.601 139.845 202.511C142.195 202.941 144.475 203.511 146.415 204.061C148.194 204.552 149.777 205.586 150.941 207.018C152.106 208.45 152.796 210.209 152.915 212.051Z" fill="#6C7CA4"/>
<path d="M146.06 204.139C141.3 203.139 140.77 217.029 144.23 221.029C147.69 225.029 166.14 228.029 166.14 228.029L169.56 215.529C169.56 215.529 154.39 205.949 146.06 204.139Z" fill="#4A5879"/>
<path d="M126.59 191.58C126.59 191.58 120.5 189.91 117.67 176.84C114.84 163.77 127.29 157.94 141.4 160.77C155.51 163.6 148.61 183.77 136.33 191.58C133.177 192.685 129.743 192.685 126.59 191.58Z" fill="#2E353A"/>
<path d="M142 180.96C142.338 182.581 143.283 184.012 144.64 184.96C146.37 186.1 147.71 184.36 147.64 182.12C147.56 180.12 146.57 177.12 144.64 176.85C142.71 176.58 141.52 178.84 142 180.96Z" fill="#E4897B"/>
<path d="M183.75 231.39V235.65C183.75 236.557 184.11 237.427 184.752 238.068C185.393 238.71 186.263 239.07 187.17 239.07H255.64C256.214 239.07 256.764 238.843 257.171 238.438C257.578 238.033 257.807 237.484 257.81 236.91V231.39H183.75Z" fill="#4A5879"/>
<path opacity="0.6" d="M183.75 231.39V235.65C183.75 236.557 184.11 237.427 184.752 238.068C185.393 238.71 186.263 239.07 187.17 239.07H255.64C256.214 239.07 256.764 238.843 257.171 238.438C257.578 238.033 257.807 237.484 257.81 236.91V231.39H183.75Z" fill="#4A5879"/>
<path opacity="0.2" d="M257.81 231.35H183.75V235.19H257.81V231.35Z" fill="black"/>
<path d="M261.48 228.03H181.91C181.336 228.03 180.786 228.257 180.379 228.662C179.972 229.067 179.743 229.616 179.74 230.19C179.74 230.475 179.796 230.756 179.905 231.019C180.015 231.282 180.175 231.52 180.376 231.721C180.578 231.922 180.817 232.081 181.08 232.188C181.344 232.296 181.625 232.351 181.91 232.35H261.6C261.902 232.35 262.201 232.287 262.478 232.164C262.754 232.042 263.001 231.862 263.204 231.638C263.407 231.414 263.56 231.149 263.654 230.862C263.748 230.575 263.781 230.271 263.75 229.97C263.676 229.424 263.404 228.924 262.985 228.567C262.567 228.209 262.031 228.018 261.48 228.03Z" fill="#4A5879"/>
<path opacity="0.6" d="M261.48 228.03H181.91C181.336 228.03 180.786 228.257 180.379 228.662C179.972 229.067 179.743 229.616 179.74 230.19C179.74 230.475 179.796 230.756 179.905 231.019C180.015 231.282 180.175 231.52 180.376 231.721C180.578 231.922 180.817 232.081 181.08 232.188C181.344 232.296 181.625 232.351 181.91 232.35H261.6C261.902 232.35 262.201 232.287 262.478 232.164C262.754 232.042 263.001 231.862 263.204 231.638C263.407 231.414 263.56 231.149 263.654 230.862C263.748 230.575 263.781 230.271 263.75 229.97C263.676 229.424 263.404 228.924 262.985 228.567C262.567 228.209 262.031 228.018 261.48 228.03Z" fill="#4A5879"/>
<path d="M125.21 359.44H131.46L132.68 307.01L133.04 291.44H123.64L124 307.01L125.21 359.44Z" fill="#4A5879"/>
<path opacity="0.2" d="M133.04 291.44L132.68 307.44H124L123.64 291.44H133.04Z" fill="black"/>
<path d="M161.37 359.44L157.42 292.54H149.25L154.78 359.44H161.37Z" fill="#4A5879"/>
<path opacity="0.2" d="M149.25 292.44L149.88 300.44H157.87L157.42 292.44H149.25Z" fill="black"/>
<path d="M101.89 359.44L107.42 292.54H99.25L95.31 359.44H101.89Z" fill="#4A5879"/>
<path opacity="0.2" d="M107.42 292.44L106.79 300.44H98.8L99.25 292.44H107.42Z" fill="black"/>
<path d="M99.88 283.77H156.8C157.457 283.77 158.107 283.899 158.713 284.151C159.32 284.402 159.871 284.77 160.336 285.234C160.8 285.699 161.168 286.25 161.419 286.857C161.671 287.463 161.8 288.113 161.8 288.77V295.46H94.88V288.77C94.88 287.444 95.4068 286.172 96.3445 285.234C97.2822 284.297 98.5539 283.77 99.88 283.77Z" fill="#4A5879"/>
<path d="M121.134 219.436L116.18 220.115L125.995 291.766L130.949 291.087L121.134 219.436Z" fill="#4A5879"/>
<path d="M90.1304 219.443L85.1767 220.122L94.9916 291.773L99.9454 291.094L90.1304 219.443Z" fill="#4A5879"/>
<path d="M93.68 290.12H162.99C163.824 290.12 164.5 290.796 164.5 291.63V293.45C164.5 294.284 163.824 294.96 162.99 294.96H93.68C92.846 294.96 92.17 294.284 92.17 293.45V291.63C92.17 290.796 92.846 290.12 93.68 290.12Z" fill="#4A5879" stroke="black"/>
<path d="M128.05 243.73H83.56L80 215.97H124.49L128.05 243.73Z" fill="#4A5879"/>
<path opacity="0.6" d="M128.05 243.73H83.56L80 215.97H124.49L128.05 243.73Z" fill="#9BA6C1"/>
</g>
<defs>
<clipPath id="clip0_38_2">
<rect width="500" height="372.61" fill="white" transform="translate(0 0.390015)"/>
</clipPath>
</defs>
</svg>
