<svg width="169" height="45" viewBox="0 0 169 45" fill="none" xmlns="http://www.w3.org/2000/svg">
<path d="M50.82 30.7258V13.4279H54.4772V27.7105H61.893V30.7258H50.82ZM79.5372 22.0768C79.5372 23.9631 79.1796 25.5679 78.4645 26.8912C77.755 28.2144 76.7865 29.2252 75.559 29.9234C74.3371 30.616 72.9632 30.9623 71.4372 30.9623C69.9 30.9623 68.5205 30.6132 67.2986 29.9149C66.0767 29.2167 65.111 28.206 64.4015 26.8827C63.692 25.5595 63.3373 23.9575 63.3373 22.0768C63.3373 20.1905 63.692 18.5857 64.4015 17.2625C65.111 15.9392 66.0767 14.9313 67.2986 14.2387C68.5205 13.5405 69.9 13.1914 71.4372 13.1914C72.9632 13.1914 74.3371 13.5405 75.559 14.2387C76.7865 14.9313 77.755 15.9392 78.4645 17.2625C79.1796 18.5857 79.5372 20.1905 79.5372 22.0768ZM75.8293 22.0768C75.8293 20.8549 75.6463 19.8245 75.2803 18.9855C74.9199 18.1465 74.4103 17.5102 73.7515 17.0767C73.0927 16.6431 72.3213 16.4263 71.4372 16.4263C70.5532 16.4263 69.7818 16.6431 69.123 17.0767C68.4641 17.5102 67.9517 18.1465 67.5857 18.9855C67.2254 19.8245 67.0452 20.8549 67.0452 22.0768C67.0452 23.2987 67.2254 24.3292 67.5857 25.1681C67.9517 26.0071 68.4641 26.6434 69.123 27.077C69.7818 27.5106 70.5532 27.7274 71.4372 27.7274C72.3213 27.7274 73.0927 27.5106 73.7515 27.077C74.4103 26.6434 74.9199 26.0071 75.2803 25.1681C75.6463 24.3292 75.8293 23.2987 75.8293 22.0768ZM93.7163 19.0193C93.598 18.6082 93.4319 18.245 93.2179 17.9297C93.004 17.6088 92.7421 17.3385 92.4324 17.1189C92.1284 16.8937 91.7793 16.7219 91.3851 16.6037C90.9966 16.4854 90.5658 16.4263 90.0928 16.4263C89.2088 16.4263 88.4317 16.6459 87.7617 17.0851C87.0972 17.5243 86.5792 18.1634 86.2076 19.0024C85.8359 19.8358 85.6501 20.8549 85.6501 22.0599C85.6501 23.2649 85.8331 24.2897 86.1991 25.1344C86.5651 25.979 87.0832 26.6237 87.7532 27.0685C88.4233 27.5078 89.2144 27.7274 90.1266 27.7274C90.9544 27.7274 91.661 27.581 92.2466 27.2882C92.8379 26.9897 93.2883 26.5702 93.598 26.0297C93.9134 25.4891 94.071 24.85 94.071 24.1124L94.8143 24.2222H90.3547V21.4687H97.5931V23.6478C97.5931 25.1681 97.2721 26.4745 96.6302 27.5669C95.9883 28.6536 95.1043 29.4926 93.9781 30.0839C92.8519 30.6695 91.5625 30.9623 90.1097 30.9623C88.4881 30.9623 87.0635 30.6047 85.8359 29.8896C84.6084 29.1688 83.6512 28.1469 82.9642 26.8236C82.2829 25.4947 81.9422 23.9181 81.9422 22.0937C81.9422 20.6916 82.1449 19.4416 82.5504 18.3436C82.9614 17.2399 83.5357 16.3052 84.2734 15.5394C85.011 14.7736 85.8697 14.1909 86.8495 13.7911C87.8293 13.3913 88.8907 13.1914 90.0337 13.1914C91.0135 13.1914 91.9257 13.335 92.7703 13.6221C93.6149 13.9037 94.3638 14.3035 95.017 14.8215C95.6758 15.3395 96.2135 15.9561 96.6302 16.6712C97.0469 17.3807 97.3144 18.1634 97.4326 19.0193H93.7163Z" fill="#FF4A1C"/>
<path d="M100.34 30.7258V13.4279H107.266C108.539 13.4279 109.6 13.6165 110.45 13.9938C111.301 14.371 111.94 14.8947 112.368 15.5648C112.796 16.2292 113.01 16.995 113.01 17.8622C113.01 18.5379 112.874 19.1319 112.604 19.6443C112.334 20.1511 111.962 20.5678 111.489 20.8944C111.022 21.2153 110.487 21.4434 109.884 21.5785V21.7474C110.543 21.7756 111.16 21.9614 111.734 22.3049C112.314 22.6484 112.784 23.1298 113.145 23.7492C113.505 24.3629 113.685 25.0949 113.685 25.9452C113.685 26.863 113.457 27.6823 113.001 28.4031C112.551 29.1182 111.883 29.6841 110.999 30.1007C110.115 30.5174 109.026 30.7258 107.731 30.7258H100.34ZM103.997 27.7358H106.979C107.998 27.7358 108.741 27.5415 109.209 27.153C109.676 26.7589 109.91 26.2352 109.91 25.582C109.91 25.1034 109.794 24.6811 109.564 24.3151C109.333 23.9491 109.003 23.6619 108.575 23.4536C108.153 23.2452 107.649 23.141 107.063 23.141H103.997V27.7358ZM103.997 20.6663H106.709C107.21 20.6663 107.655 20.579 108.043 20.4045C108.437 20.2243 108.747 19.9709 108.972 19.6443C109.203 19.3177 109.319 18.9264 109.319 18.4703C109.319 17.8453 109.096 17.3413 108.651 16.9584C108.212 16.5755 107.587 16.3841 106.776 16.3841H103.997V20.6663ZM131.961 22.0768C131.961 23.9631 131.603 25.5679 130.888 26.8912C130.179 28.2144 129.21 29.2252 127.983 29.9234C126.761 30.616 125.387 30.9623 123.861 30.9623C122.324 30.9623 120.944 30.6132 119.722 29.9149C118.5 29.2167 117.535 28.206 116.825 26.8827C116.116 25.5595 115.761 23.9575 115.761 22.0768C115.761 20.1905 116.116 18.5857 116.825 17.2625C117.535 15.9392 118.5 14.9313 119.722 14.2387C120.944 13.5405 122.324 13.1914 123.861 13.1914C125.387 13.1914 126.761 13.5405 127.983 14.2387C129.21 14.9313 130.179 15.9392 130.888 17.2625C131.603 18.5857 131.961 20.1905 131.961 22.0768ZM128.253 22.0768C128.253 20.8549 128.07 19.8245 127.704 18.9855C127.344 18.1465 126.834 17.5102 126.175 17.0767C125.516 16.6431 124.745 16.4263 123.861 16.4263C122.977 16.4263 122.205 16.6431 121.547 17.0767C120.888 17.5102 120.375 18.1465 120.009 18.9855C119.649 19.8245 119.469 20.8549 119.469 22.0768C119.469 23.2987 119.649 24.3292 120.009 25.1681C120.375 26.0071 120.888 26.6434 121.547 27.077C122.205 27.5106 122.977 27.7274 123.861 27.7274C124.745 27.7274 125.516 27.5106 126.175 27.077C126.834 26.6434 127.344 26.0071 127.704 25.1681C128.07 24.3292 128.253 23.2987 128.253 22.0768ZM150.566 22.0768C150.566 23.9631 150.208 25.5679 149.493 26.8912C148.784 28.2144 147.815 29.2252 146.588 29.9234C145.366 30.616 143.992 30.9623 142.466 30.9623C140.929 30.9623 139.549 30.6132 138.327 29.9149C137.105 29.2167 136.14 28.206 135.43 26.8827C134.721 25.5595 134.366 23.9575 134.366 22.0768C134.366 20.1905 134.721 18.5857 135.43 17.2625C136.14 15.9392 137.105 14.9313 138.327 14.2387C139.549 13.5405 140.929 13.1914 142.466 13.1914C143.992 13.1914 145.366 13.5405 146.588 14.2387C147.815 14.9313 148.784 15.9392 149.493 17.2625C150.208 18.5857 150.566 20.1905 150.566 22.0768ZM146.858 22.0768C146.858 20.8549 146.675 19.8245 146.309 18.9855C145.949 18.1465 145.439 17.5102 144.78 17.0767C144.121 16.6431 143.35 16.4263 142.466 16.4263C141.582 16.4263 140.81 16.6431 140.152 17.0767C139.493 17.5102 138.98 18.1465 138.614 18.9855C138.254 19.8245 138.074 20.8549 138.074 22.0768C138.074 23.2987 138.254 24.3292 138.614 25.1681C138.98 26.0071 139.493 26.6434 140.152 27.077C140.81 27.5106 141.582 27.7274 142.466 27.7274C143.35 27.7274 144.121 27.5106 144.78 27.077C145.439 26.6434 145.949 26.0071 146.309 25.1681C146.675 24.3292 146.858 23.2987 146.858 22.0768ZM153.275 30.7258V13.4279H156.932V21.0548H157.16L163.385 13.4279H167.769L161.35 21.1731L167.845 30.7258H163.47L158.731 23.614L156.932 25.8101V30.7258H153.275Z" fill="black"/>
<path d="M44.5568 25.2654H33.2821V31.9819H42.693C43.6508 29.898 44.2926 27.6387 44.5568 25.2654Z" fill="#FF3D00"/>
<path d="M39.5972 36.8854C35.561 41.7261 29.4851 44.8066 22.6896 44.8066C10.5374 44.8066 0.686157 34.9553 0.686157 22.8032C0.686157 10.651 10.5374 0.799713 22.6896 0.799713C29.5013 0.799713 35.5901 3.89499 39.6262 8.75576H27.3348V36.8854H39.5972Z" fill="black"/>
<path d="M42.709 13.6592C43.6608 15.7397 44.2978 17.9942 44.5592 20.362H33.2821V13.6592H42.709Z" fill="#FF3D00"/>
</svg>
