<svg width="179" height="45" viewBox="0 0 179 45" fill="none" xmlns="http://www.w3.org/2000/svg">
<path d="M51.2907 30.7258V14.0765H55.1438V27.5862H63.4921V30.7258H51.2907ZM73.4763 31.0112C72.1602 31.0112 70.9393 30.7971 69.8135 30.369C68.7035 29.9409 67.7363 29.3383 66.9117 28.5614C66.1031 27.7844 65.4688 26.8727 65.009 25.8261C64.565 24.7796 64.343 23.638 64.343 22.4012C64.343 21.1644 64.565 20.0227 65.009 18.9762C65.4688 17.9297 66.111 17.0179 66.9355 16.2409C67.7601 15.464 68.7273 14.8614 69.8372 14.4333C70.9472 14.0052 72.1523 13.7911 73.4525 13.7911C74.7686 13.7911 75.9737 14.0052 77.0678 14.4333C78.1777 14.8614 79.137 15.464 79.9457 16.2409C80.7702 17.0179 81.4124 17.9297 81.8723 18.9762C82.3321 20.0068 82.562 21.1485 82.562 22.4012C82.562 23.638 82.3321 24.7875 81.8723 25.8499C81.4124 26.8964 80.7702 27.8082 79.9457 28.5852C79.137 29.3463 78.1777 29.9409 77.0678 30.369C75.9737 30.7971 74.7765 31.0112 73.4763 31.0112ZM73.4525 27.7289C74.1978 27.7289 74.8796 27.6021 75.498 27.3484C76.1322 27.0947 76.6872 26.73 77.1629 26.2543C77.6386 25.7786 78.0033 25.2157 78.257 24.5656C78.5266 23.9154 78.6613 23.194 78.6613 22.4012C78.6613 21.6083 78.5266 20.8869 78.257 20.2368C78.0033 19.5866 77.6386 19.0237 77.1629 18.5481C76.7031 18.0724 76.156 17.7077 75.5218 17.454C74.8875 17.2003 74.1978 17.0734 73.4525 17.0734C72.7073 17.0734 72.0175 17.2003 71.3832 17.454C70.7648 17.7077 70.2178 18.0724 69.7421 18.5481C69.2664 19.0237 68.8938 19.5866 68.6242 20.2368C68.3705 20.8869 68.2437 21.6083 68.2437 22.4012C68.2437 23.1781 68.3705 23.8996 68.6242 24.5656C68.8938 25.2157 69.2585 25.7786 69.7183 26.2543C70.194 26.73 70.749 27.0947 71.3832 27.3484C72.0175 27.6021 72.7073 27.7289 73.4525 27.7289ZM93.497 31.0112C92.1809 31.0112 90.9679 30.8051 89.8579 30.3928C88.7638 29.9647 87.8045 29.3621 86.98 28.5852C86.1713 27.8082 85.5371 26.8964 85.0772 25.8499C84.6333 24.8034 84.4113 23.6538 84.4113 22.4012C84.4113 21.1485 84.6333 19.9989 85.0772 18.9524C85.5371 17.9059 86.1793 16.9941 87.0038 16.2172C87.8283 15.4402 88.7956 14.8456 89.9055 14.4333C91.0155 14.0052 92.2364 13.7911 93.5683 13.7911C95.043 13.7911 96.367 14.0369 97.5404 14.5285C98.7296 15.02 99.7285 15.7335 100.537 16.6691L98.0636 18.9524C97.4611 18.3181 96.803 17.8504 96.0895 17.5491C95.376 17.232 94.599 17.0734 93.7586 17.0734C92.9499 17.0734 92.2126 17.2003 91.5466 17.454C90.8807 17.7077 90.3019 18.0724 89.8104 18.5481C89.3347 19.0237 88.9621 19.5866 88.6925 20.2368C88.4388 20.8869 88.3119 21.6083 88.3119 22.4012C88.3119 23.1781 88.4388 23.8917 88.6925 24.5418C88.9621 25.1919 89.3347 25.7627 89.8104 26.2543C90.3019 26.73 90.8727 27.0947 91.5229 27.3484C92.1888 27.6021 92.9182 27.7289 93.711 27.7289C94.4722 27.7289 95.2095 27.61 95.923 27.3721C96.6524 27.1184 97.358 26.6982 98.0398 26.1116L100.228 28.8944C99.3242 29.5762 98.2698 30.0994 97.0647 30.4641C95.8754 30.8288 94.6862 31.0112 93.497 31.0112ZM96.7079 28.3949V22.1395H100.228V28.8944L96.7079 28.3949ZM103.807 30.7258V14.0765H111.942C114.035 14.0765 115.604 14.473 116.651 15.2658C117.713 16.0586 118.244 17.1051 118.244 18.4053C118.244 19.2774 118.03 20.0386 117.602 20.6887C117.174 21.3229 116.587 21.8145 115.842 22.1633C115.097 22.5122 114.241 22.6866 113.274 22.6866L113.725 21.7114C114.772 21.7114 115.7 21.8858 116.508 22.2347C117.317 22.5677 117.943 23.0671 118.387 23.7331C118.847 24.3991 119.077 25.2157 119.077 26.1829C119.077 27.61 118.514 28.7279 117.388 29.5365C116.262 30.3294 114.605 30.7258 112.417 30.7258H103.807ZM107.637 27.824H112.132C113.131 27.824 113.884 27.6655 114.391 27.3484C114.915 27.0154 115.176 26.4921 115.176 25.7786C115.176 25.0809 114.915 24.5656 114.391 24.2326C113.884 23.8837 113.131 23.7093 112.132 23.7093H107.351V20.9027H111.466C112.401 20.9027 113.115 20.7442 113.606 20.427C114.114 20.0941 114.368 19.5946 114.368 18.9286C114.368 18.2785 114.114 17.7949 113.606 17.4777C113.115 17.1448 112.401 16.9783 111.466 16.9783H107.637V27.824ZM130.081 31.0112C128.765 31.0112 127.544 30.7971 126.418 30.369C125.308 29.9409 124.341 29.3383 123.516 28.5614C122.708 27.7844 122.073 26.8727 121.614 25.8261C121.17 24.7796 120.948 23.638 120.948 22.4012C120.948 21.1644 121.17 20.0227 121.614 18.9762C122.073 17.9297 122.716 17.0179 123.54 16.2409C124.365 15.464 125.332 14.8614 126.442 14.4333C127.552 14.0052 128.757 13.7911 130.057 13.7911C131.373 13.7911 132.578 14.0052 133.672 14.4333C134.782 14.8614 135.742 15.464 136.55 16.2409C137.375 17.0179 138.017 17.9297 138.477 18.9762C138.937 20.0068 139.167 21.1485 139.167 22.4012C139.167 23.638 138.937 24.7875 138.477 25.8499C138.017 26.8964 137.375 27.8082 136.55 28.5852C135.742 29.3463 134.782 29.9409 133.672 30.369C132.578 30.7971 131.381 31.0112 130.081 31.0112ZM130.057 27.7289C130.802 27.7289 131.484 27.6021 132.103 27.3484C132.737 27.0947 133.292 26.73 133.767 26.2543C134.243 25.7786 134.608 25.2157 134.862 24.5656C135.131 23.9154 135.266 23.194 135.266 22.4012C135.266 21.6083 135.131 20.8869 134.862 20.2368C134.608 19.5866 134.243 19.0237 133.767 18.5481C133.308 18.0724 132.761 17.7077 132.126 17.454C131.492 17.2003 130.802 17.0734 130.057 17.0734C129.312 17.0734 128.622 17.2003 127.988 17.454C127.369 17.7077 126.822 18.0724 126.347 18.5481C125.871 19.0237 125.498 19.5866 125.229 20.2368C124.975 20.8869 124.848 21.6083 124.848 22.4012C124.848 23.1781 124.975 23.8996 125.229 24.5656C125.498 25.2157 125.863 25.7786 126.323 26.2543C126.799 26.73 127.354 27.0947 127.988 27.3484C128.622 27.6021 129.312 27.7289 130.057 27.7289ZM150.149 31.0112C148.833 31.0112 147.612 30.7971 146.486 30.369C145.376 29.9409 144.409 29.3383 143.585 28.5614C142.776 27.7844 142.142 26.8727 141.682 25.8261C141.238 24.7796 141.016 23.638 141.016 22.4012C141.016 21.1644 141.238 20.0227 141.682 18.9762C142.142 17.9297 142.784 17.0179 143.608 16.2409C144.433 15.464 145.4 14.8614 146.51 14.4333C147.62 14.0052 148.825 13.7911 150.125 13.7911C151.441 13.7911 152.646 14.0052 153.741 14.4333C154.851 14.8614 155.81 15.464 156.619 16.2409C157.443 17.0179 158.085 17.9297 158.545 18.9762C159.005 20.0068 159.235 21.1485 159.235 22.4012C159.235 23.638 159.005 24.7875 158.545 25.8499C158.085 26.8964 157.443 27.8082 156.619 28.5852C155.81 29.3463 154.851 29.9409 153.741 30.369C152.646 30.7971 151.449 31.0112 150.149 31.0112ZM150.125 27.7289C150.871 27.7289 151.552 27.6021 152.171 27.3484C152.805 27.0947 153.36 26.73 153.836 26.2543C154.311 25.7786 154.676 25.2157 154.93 24.5656C155.199 23.9154 155.334 23.194 155.334 22.4012C155.334 21.6083 155.199 20.8869 154.93 20.2368C154.676 19.5866 154.311 19.0237 153.836 18.5481C153.376 18.0724 152.829 17.7077 152.195 17.454C151.56 17.2003 150.871 17.0734 150.125 17.0734C149.38 17.0734 148.69 17.2003 148.056 17.454C147.438 17.7077 146.891 18.0724 146.415 18.5481C145.939 19.0237 145.567 19.5866 145.297 20.2368C145.043 20.8869 144.917 21.6083 144.917 22.4012C144.917 23.1781 145.043 23.8996 145.297 24.5656C145.567 25.2157 145.931 25.7786 146.391 26.2543C146.867 26.73 147.422 27.0947 148.056 27.3484C148.69 27.6021 149.38 27.7289 150.125 27.7289ZM165.579 26.9202L165.365 22.4725L173.333 14.0765H177.614L170.431 21.8065L168.291 24.0899L165.579 26.9202ZM162.131 30.7258V14.0765H165.96V30.7258H162.131ZM173.523 30.7258L167.601 23.4715L170.122 20.7362L178.019 30.7258H173.523Z" fill="#FF4A1C"/>
<path d="M44.405 26.3725C44.501 25.7841 44.0354 25.2654 43.4393 25.2654H34.2821C33.7299 25.2654 33.2821 25.7131 33.2821 26.2654V30.9819C33.2821 31.5342 33.7299 31.9819 34.2821 31.9819H42.0521C42.4427 31.9819 42.7995 31.7552 42.9521 31.3957C43.6262 29.8081 44.1191 28.1251 44.405 26.3725Z" fill="#FF3D00"/>
<path d="M37.4614 36.8854C38.3094 36.8854 38.7557 37.8614 38.1525 38.4573C34.1784 42.3831 28.717 44.8066 22.6896 44.8066C10.5374 44.8066 0.686157 34.9553 0.686157 22.8032C0.686157 10.651 10.5374 0.799713 22.6896 0.799713C28.7354 0.799713 34.2116 3.23801 38.1887 7.18487C38.7899 7.78151 38.3431 8.75576 37.4961 8.75576H31.3348C29.1257 8.75576 27.3348 10.5466 27.3348 12.7558V32.8854C27.3348 35.0945 29.1257 36.8854 31.3348 36.8854H37.4614Z" fill="#57F90A" fill-opacity="0.16"/>
<path d="M42.0668 13.6592C42.4581 13.6592 42.8153 13.8866 42.9676 14.247C43.6365 15.8305 44.1254 17.5087 44.4086 19.2558C44.5039 19.8439 44.0384 20.362 43.4427 20.362H34.2821C33.7299 20.362 33.2821 19.9143 33.2821 19.362V14.6592C33.2821 14.1069 33.7299 13.6592 34.2821 13.6592H42.0668Z" fill="#FF3D00"/>
<path d="M27.2816 13.8606C25.8881 13.1331 24.3034 12.7218 22.6226 12.7218C17.0548 12.7218 12.5413 17.2354 12.5413 22.8032C12.5413 28.3709 17.0548 32.8845 22.6226 32.8845C24.3034 32.8845 25.8881 32.4732 27.2816 31.7457V13.8606Z" fill="#00F4B5"/>
</svg>
