<svg width="182" height="51" viewBox="0 0 182 51" fill="none" xmlns="http://www.w3.org/2000/svg">
<path d="M54.2907 33.7258V17.0765H58.1438V30.5862H66.4921V33.7258H54.2907ZM76.4763 34.0112C75.1602 34.0112 73.9393 33.7971 72.8135 33.369C71.7035 32.9409 70.7363 32.3383 69.9117 31.5614C69.1031 30.7844 68.4688 29.8727 68.009 28.8261C67.565 27.7796 67.343 26.638 67.343 25.4012C67.343 24.1644 67.565 23.0227 68.009 21.9762C68.4688 20.9297 69.111 20.0179 69.9355 19.2409C70.7601 18.464 71.7273 17.8614 72.8372 17.4333C73.9472 17.0052 75.1523 16.7911 76.4525 16.7911C77.7686 16.7911 78.9737 17.0052 80.0678 17.4333C81.1777 17.8614 82.137 18.464 82.9457 19.2409C83.7702 20.0179 84.4124 20.9297 84.8723 21.9762C85.3321 23.0068 85.562 24.1485 85.562 25.4012C85.562 26.638 85.3321 27.7875 84.8723 28.8499C84.4124 29.8964 83.7702 30.8082 82.9457 31.5852C82.137 32.3463 81.1777 32.9409 80.0678 33.369C78.9737 33.7971 77.7765 34.0112 76.4763 34.0112ZM76.4525 30.7289C77.1978 30.7289 77.8796 30.6021 78.498 30.3484C79.1322 30.0947 79.6872 29.73 80.1629 29.2543C80.6386 28.7786 81.0033 28.2157 81.257 27.5656C81.5266 26.9154 81.6613 26.194 81.6613 25.4012C81.6613 24.6083 81.5266 23.8869 81.257 23.2368C81.0033 22.5866 80.6386 22.0237 80.1629 21.5481C79.7031 21.0724 79.156 20.7077 78.5218 20.454C77.8875 20.2003 77.1978 20.0734 76.4525 20.0734C75.7073 20.0734 75.0175 20.2003 74.3832 20.454C73.7648 20.7077 73.2178 21.0724 72.7421 21.5481C72.2664 22.0237 71.8938 22.5866 71.6242 23.2368C71.3705 23.8869 71.2437 24.6083 71.2437 25.4012C71.2437 26.1781 71.3705 26.8996 71.6242 27.5656C71.8938 28.2157 72.2585 28.7786 72.7183 29.2543C73.194 29.73 73.749 30.0947 74.3832 30.3484C75.0175 30.6021 75.7073 30.7289 76.4525 30.7289ZM96.497 34.0112C95.1809 34.0112 93.9679 33.8051 92.8579 33.3928C91.7638 32.9647 90.8045 32.3621 89.98 31.5852C89.1713 30.8082 88.5371 29.8964 88.0772 28.8499C87.6333 27.8034 87.4113 26.6538 87.4113 25.4012C87.4113 24.1485 87.6333 22.9989 88.0772 21.9524C88.5371 20.9059 89.1793 19.9941 90.0038 19.2172C90.8283 18.4402 91.7956 17.8456 92.9055 17.4333C94.0155 17.0052 95.2364 16.7911 96.5683 16.7911C98.043 16.7911 99.367 17.0369 100.54 17.5285C101.73 18.02 102.729 18.7335 103.537 19.6691L101.064 21.9524C100.461 21.3181 99.803 20.8504 99.0895 20.5491C98.376 20.232 97.599 20.0734 96.7586 20.0734C95.9499 20.0734 95.2126 20.2003 94.5466 20.454C93.8807 20.7077 93.3019 21.0724 92.8104 21.5481C92.3347 22.0237 91.9621 22.5866 91.6925 23.2368C91.4388 23.8869 91.3119 24.6083 91.3119 25.4012C91.3119 26.1781 91.4388 26.8917 91.6925 27.5418C91.9621 28.1919 92.3347 28.7627 92.8104 29.2543C93.3019 29.73 93.8727 30.0947 94.5229 30.3484C95.1888 30.6021 95.9182 30.7289 96.711 30.7289C97.4722 30.7289 98.2095 30.61 98.923 30.3721C99.6524 30.1184 100.358 29.6982 101.04 29.1116L103.228 31.8944C102.324 32.5762 101.27 33.0994 100.065 33.4641C98.8754 33.8288 97.6862 34.0112 96.497 34.0112ZM99.7079 31.3949V25.1395H103.228V31.8944L99.7079 31.3949ZM106.807 33.7258V17.0765H114.942C117.035 17.0765 118.604 17.473 119.651 18.2658C120.713 19.0586 121.244 20.1051 121.244 21.4053C121.244 22.2774 121.03 23.0386 120.602 23.6887C120.174 24.3229 119.587 24.8145 118.842 25.1633C118.097 25.5122 117.241 25.6866 116.274 25.6866L116.725 24.7114C117.772 24.7114 118.7 24.8858 119.508 25.2347C120.317 25.5677 120.943 26.0671 121.387 26.7331C121.847 27.3991 122.077 28.2157 122.077 29.1829C122.077 30.61 121.514 31.7279 120.388 32.5365C119.262 33.3294 117.605 33.7258 115.417 33.7258H106.807ZM110.637 30.824H115.132C116.131 30.824 116.884 30.6655 117.391 30.3484C117.915 30.0154 118.176 29.4921 118.176 28.7786C118.176 28.0809 117.915 27.5656 117.391 27.2326C116.884 26.8837 116.131 26.7093 115.132 26.7093H110.351V23.9027H114.466C115.401 23.9027 116.115 23.7442 116.606 23.427C117.114 23.0941 117.368 22.5946 117.368 21.9286C117.368 21.2785 117.114 20.7949 116.606 20.4777C116.115 20.1448 115.401 19.9783 114.466 19.9783H110.637V30.824ZM133.081 34.0112C131.765 34.0112 130.544 33.7971 129.418 33.369C128.308 32.9409 127.341 32.3383 126.516 31.5614C125.708 30.7844 125.073 29.8727 124.614 28.8261C124.17 27.7796 123.948 26.638 123.948 25.4012C123.948 24.1644 124.17 23.0227 124.614 21.9762C125.073 20.9297 125.716 20.0179 126.54 19.2409C127.365 18.464 128.332 17.8614 129.442 17.4333C130.552 17.0052 131.757 16.7911 133.057 16.7911C134.373 16.7911 135.578 17.0052 136.672 17.4333C137.782 17.8614 138.742 18.464 139.55 19.2409C140.375 20.0179 141.017 20.9297 141.477 21.9762C141.937 23.0068 142.167 24.1485 142.167 25.4012C142.167 26.638 141.937 27.7875 141.477 28.8499C141.017 29.8964 140.375 30.8082 139.55 31.5852C138.742 32.3463 137.782 32.9409 136.672 33.369C135.578 33.7971 134.381 34.0112 133.081 34.0112ZM133.057 30.7289C133.802 30.7289 134.484 30.6021 135.103 30.3484C135.737 30.0947 136.292 29.73 136.767 29.2543C137.243 28.7786 137.608 28.2157 137.862 27.5656C138.131 26.9154 138.266 26.194 138.266 25.4012C138.266 24.6083 138.131 23.8869 137.862 23.2368C137.608 22.5866 137.243 22.0237 136.767 21.5481C136.308 21.0724 135.761 20.7077 135.126 20.454C134.492 20.2003 133.802 20.0734 133.057 20.0734C132.312 20.0734 131.622 20.2003 130.988 20.454C130.369 20.7077 129.822 21.0724 129.347 21.5481C128.871 22.0237 128.498 22.5866 128.229 23.2368C127.975 23.8869 127.848 24.6083 127.848 25.4012C127.848 26.1781 127.975 26.8996 128.229 27.5656C128.498 28.2157 128.863 28.7786 129.323 29.2543C129.799 29.73 130.354 30.0947 130.988 30.3484C131.622 30.6021 132.312 30.7289 133.057 30.7289ZM153.149 34.0112C151.833 34.0112 150.612 33.7971 149.486 33.369C148.376 32.9409 147.409 32.3383 146.585 31.5614C145.776 30.7844 145.142 29.8727 144.682 28.8261C144.238 27.7796 144.016 26.638 144.016 25.4012C144.016 24.1644 144.238 23.0227 144.682 21.9762C145.142 20.9297 145.784 20.0179 146.608 19.2409C147.433 18.464 148.4 17.8614 149.51 17.4333C150.62 17.0052 151.825 16.7911 153.125 16.7911C154.441 16.7911 155.646 17.0052 156.741 17.4333C157.851 17.8614 158.81 18.464 159.619 19.2409C160.443 20.0179 161.085 20.9297 161.545 21.9762C162.005 23.0068 162.235 24.1485 162.235 25.4012C162.235 26.638 162.005 27.7875 161.545 28.8499C161.085 29.8964 160.443 30.8082 159.619 31.5852C158.81 32.3463 157.851 32.9409 156.741 33.369C155.646 33.7971 154.449 34.0112 153.149 34.0112ZM153.125 30.7289C153.871 30.7289 154.552 30.6021 155.171 30.3484C155.805 30.0947 156.36 29.73 156.836 29.2543C157.311 28.7786 157.676 28.2157 157.93 27.5656C158.199 26.9154 158.334 26.194 158.334 25.4012C158.334 24.6083 158.199 23.8869 157.93 23.2368C157.676 22.5866 157.311 22.0237 156.836 21.5481C156.376 21.0724 155.829 20.7077 155.195 20.454C154.56 20.2003 153.871 20.0734 153.125 20.0734C152.38 20.0734 151.69 20.2003 151.056 20.454C150.438 20.7077 149.891 21.0724 149.415 21.5481C148.939 22.0237 148.567 22.5866 148.297 23.2368C148.043 23.8869 147.917 24.6083 147.917 25.4012C147.917 26.1781 148.043 26.8996 148.297 27.5656C148.567 28.2157 148.931 28.7786 149.391 29.2543C149.867 29.73 150.422 30.0947 151.056 30.3484C151.69 30.6021 152.38 30.7289 153.125 30.7289ZM168.579 29.9202L168.365 25.4725L176.333 17.0765H180.614L173.431 24.8065L171.291 27.0899L168.579 29.9202ZM165.131 33.7258V17.0765H168.96V33.7258H165.131ZM176.523 33.7258L170.601 26.4715L173.122 23.7362L181.019 33.7258H176.523Z" fill="#FF4A1C"/>
<path d="M46.2036 39.183H45.9387L45.7899 39.4021C41.4075 45.8554 34.0106 50.0932 25.6241 50.0932C12.1713 50.0932 1.26562 39.1875 1.26562 25.7347C1.26562 12.2819 12.1713 1.37619 25.6241 1.37619C33.9583 1.37619 41.315 5.56122 45.7075 11.9467L45.8565 12.1633H46.1194H47.2951C47.8474 12.1633 48.2951 12.611 48.2951 13.1633V16.7134V16.8074L48.3292 16.8949C49.3967 19.6346 49.9827 22.6156 49.9827 25.7347C49.9827 28.9613 49.3556 32.0402 48.2171 34.8571L48.1806 34.9473V35.0445V38.183C48.1806 38.7353 47.7329 39.183 47.1806 39.183H46.2036Z" fill="#ECEDF1" stroke="#4CAF50"/>
<path d="M47.405 29.3725C47.5009 28.7841 47.0353 28.2654 46.4392 28.2654H37.2821C36.7298 28.2654 36.2821 28.7131 36.2821 29.2654V33.9819C36.2821 34.5342 36.7298 34.9819 37.2821 34.9819H45.052C45.4426 34.9819 45.7994 34.7552 45.9521 34.3957C46.6261 32.8081 47.1191 31.1251 47.405 29.3725Z" fill="#FF3D00"/>
<path d="M40.4614 39.8854C41.3093 39.8854 41.7557 40.8614 41.1524 41.4573C37.1784 45.3831 31.717 47.8066 25.6895 47.8066C13.5374 47.8066 3.6861 37.9553 3.6861 25.8032C3.6861 13.651 13.5374 3.79971 25.6895 3.79971C31.7353 3.79971 37.2116 6.23801 41.1886 10.1849C41.7898 10.7815 41.343 11.7558 40.496 11.7558H34.3348C32.1256 11.7558 30.3348 13.5466 30.3348 15.7558V35.8854C30.3348 38.0945 32.1256 39.8854 34.3348 39.8854H40.4614Z" fill="url(#paint0_radial_7_99)"/>
<path d="M45.0667 16.6592C45.458 16.6592 45.8152 16.8866 45.9675 17.247C46.6365 18.8305 47.1254 20.5087 47.4085 22.2558C47.5039 22.8439 47.0384 23.362 46.4427 23.362H37.2821C36.7298 23.362 36.2821 22.9143 36.2821 22.362V17.6592C36.2821 17.1069 36.7298 16.6592 37.2821 16.6592H45.0667Z" fill="#FF3D00"/>
<path d="M40.5972 39.8854H34.3348C32.1256 39.8854 30.3348 38.0945 30.3348 35.8854V15.7558C30.3348 13.5466 32.1256 11.7558 34.3348 11.7558H40.6262" stroke="#4CAF50"/>
<path d="M30.2816 16.8606C28.8881 16.1331 27.3034 15.7218 25.6226 15.7218C20.0548 15.7218 15.5412 20.2354 15.5412 25.8032C15.5412 31.3709 20.0548 35.8845 25.6226 35.8845C27.3034 35.8845 28.8881 35.4732 30.2816 34.7457V16.8606Z" fill="#4CAF50"/>
<defs>
<radialGradient id="paint0_radial_7_99" cx="0" cy="0" r="1" gradientUnits="userSpaceOnUse" gradientTransform="translate(25.6226 25.8032) rotate(90) scale(22.0034 21.9365)">
<stop offset="0.479167" stop-color="#57F90A" stop-opacity="0"/>
<stop offset="1" stop-color="#4DD40E" stop-opacity="0.62"/>
</radialGradient>
</defs>
</svg>
